<svg id="evLphGBWOH31" xmlns="http://www.w3.org/2000/svg" xmlns:xlink="http://www.w3.org/1999/xlink" viewBox="0 0 8.466667 8.466667" shape-rendering="geometricPrecision" text-rendering="geometricPrecision"><g transform="translate(0-288.534275)"><path fill="#efdb50" d="M14,1c-.43057-.000225-.812955.275154-.949219.683594L12.035156,4.730469c-.410051.144378-.81115.309902-1.203125.498047L7.958984,3.792969c-.385025-.192405-.849968-.116881-1.154296.1875L3.976563,6.808594c-.304382.304329-.379905.769272-.1875,1.154297l1.433593,2.867187c-.188579.39394-.355457.796828-.5,1.208984L1.679688,13.054688c-.40844.136264-.683819.518648-.683594.949218v4c-.000225.43057.275154.812955.683594.949219l3.052734,1.017578c.143883.407584.309097.805606.496094,1.195313L3.789063,24.044922c-.192406.385025-.116882.849968.1875,1.154297l2.828125,2.830078c.304328.304381.769271.379905,1.154296.1875l2.873047-1.4375c.391573.187086.791637.352283,1.201172.496094l1.017578,3.050781c.136264.40844.518649.683819.949219.683594h4c.43057.000225.812955-.275154.949219-.683594l1.017578-3.056641c.406496-.143244.804637-.308036,1.193359-.49414l2.88086,1.441406c.385025.192405.849967.116881,1.154296-.1875l2.828126-2.830078c.304381-.304329.379905-.769272.1875-1.154297l-1.435547-2.871094c.188179-.392579.353616-.794395.498047-1.205078l3.046874-1.015625c.40844-.136264.683819-.518649.683594-.949219v-4c.000225-.43057-.275155-.812954-.683594-.949218l-3.048828-1.015626c-.144351-.409397-.310214-.809839-.498046-1.201171l1.4375-2.875c.192405-.385025.116881-.849968-.1875-1.154297L25.195312,3.980469c-.304329-.304381-.769271-.379905-1.154296-.1875l-2.865235,1.43164c-.395249-.188976-.799375-.355281-1.21289-.5L18.949219,1.683594C18.812955,1.275154,18.43057,0.999775,18,1Z" transform="matrix(.264583 0 0 0.264583 0 288.533)" paint-order="stroke fill markers" stroke-width="2" stroke-linecap="round" stroke-linejoin="round"/></g></svg>
